# xmcd
#
# Track frame offsets:
#	150
#	18647
#	43815
#	60382
#	80560
#	94357
#	115625
#	140282
#	158852
#	179947
#
# Disc length: 2606 seconds
#
# Revision: 2
# Processed by: cddbd v1.4PL0 Copyright (c) Steve Scherf et al.
# Submitted via: CDmax 1.8
#
DISCID=880a2c0a
DTITLE=Roomful Of Blues - Turn It On! Turn It Up!
DYEAR=1900
DGENRE=
TTITLE0=Blind Love
TTITLE1=I Left My Baby
TTITLE2=Turn It On, Turn It Up
TTITLE3=Angry Woman
TTITLE4=If You Know It
TTITLE5=Slam Jam
TTITLE6=Danger Zone
TTITLE7=Gettin' Out
TTITLE8=One Bayou Drive
TTITLE9=Marie, Marie
EXTD=
EXTT0=
EXTT1=
EXTT2=
EXTT3=
EXTT4=
EXTT5=
EXTT6=
EXTT7=
EXTT8=
EXTT9=
PLAYORDER=
